# xmcd CD database file
#
# Track frame offsets:
#	150
#	21802
#	42595
#	66037
#	87062
#	103860
#	123992
#	142442
#	159842
#	179120
#	204177
#	225807
#	244637
#	263755
#	284272
#	318565
#
# Disc length: 4529 seconds
#
# Revision: 0
# Processed by: cddbd v1.5PL3 Copyright (c) Steve Scherf et al.
# Submitted via: CDex 1.50beta8
#
DISCID=dd11af10
DTITLE=ダウン・タウンブギウギ・バンド - Love Trace
DYEAR=1900
DGENRE=Ballad
TTITLE0=涙のシークレット・ラブ
TTITLE1=しのび逢い
TTITLE2=BALLAD
TTITLE3=うらぶれた部屋で
TTITLE4=知らず知らずのうちに
TTITLE5=今日から他人
TTITLE6=乗り継ぎステーション
TTITLE7=夕哭のブルース
TTITLE8=恋のかけら
TTITLE9=沖縄8・15
TTITLE10=哀愁のブルー・ノート
TTITLE11=裏切者の旅
TTITLE12=涙のヴァイア・コンディオス
TTITLE13=欲望の街
TTITLE14=身も心も
TTITLE15=愛のテーマ
EXTD=
EXTT0=
EXTT1=
EXTT2=
EXTT3=
EXTT4=
EXTT5=
EXTT6=
EXTT7=
EXTT8=
EXTT9=
EXTT10=
EXTT11=
EXTT12=
EXTT13=
EXTT14=
EXTT15=
PLAYORDER=
